<svg width="21" height="14" viewBox="0 0 21 14" fill="none" xmlns="http://www.w3.org/2000/svg">
<g clip-path="url(#clip0_104_3871)">
<path d="M0.511475 0.0488281H23.5135V14.0488H0.511475V0.0488281Z" fill="white"/>
<path d="M0.511475 0.0488281H23.5135V0.995077H0.511475V0.0488281ZM0.511475 1.94133H23.5135V2.88757H0.511475V1.94133ZM0.511475 3.83375H23.5135V4.77999H0.511475V3.83375ZM0.511475 5.72624H23.5135V6.67249H0.511475V5.72624ZM0.511475 7.61866H23.5135V8.56491H0.511475V7.61866ZM0.511475 9.51116H23.5135V10.4574H0.511475V9.51116ZM0.511475 11.4036H23.5135V12.3498H0.511475V11.4036Z" fill="#B22234"/>
<path d="M0.543457 13.1284H23.5455V14.0747H0.543457V13.1284ZM0.543457 15.0209H23.5455V15.9672H0.543457V15.0209ZM0.543457 16.9133H23.5455V17.8596H0.543457V16.9133ZM0.543457 18.8058H23.5455V19.7521H0.543457V18.8058ZM0.543457 20.6983H23.5455V21.6445H0.543457V20.6983ZM0.543457 22.5908H23.5455V23.537H0.543457V22.5908ZM0.543457 24.4832H23.5455V25.4294H0.543457V24.4832Z" fill="#B22234"/>
<path d="M0.511475 0.0488281H9.7123V6.67241H0.511475V0.0488281Z" fill="#3C3B6E"/>
<path d="M0.943604 0.586472L1.16281 0.748283L1.07909 1.01013L1.29822 0.848315L1.51743 1.01013L1.4337 0.748283L1.65283 0.586472H1.38195L1.29822 0.324707L1.21449 0.586472H0.943604ZM2.46902 0.586472L2.68816 0.748283L2.60443 1.01013L2.82364 0.848315L3.04285 1.01013L2.95912 0.748283L3.17825 0.586472H2.90737L2.82364 0.324707L2.73991 0.586472H2.46902ZM3.99444 0.586472L4.21358 0.748283L4.12985 1.01013L4.34906 0.848315L4.56819 1.01013L4.48446 0.748283L4.70367 0.586472H4.43279L4.34906 0.324707L4.26533 0.586472H3.99444ZM5.51986 0.586472L5.739 0.748283L5.65527 1.01013L5.87448 0.848315L6.09361 1.01013L6.00988 0.748283L6.22909 0.586472H5.95813L5.87448 0.324707L5.79075 0.586472H5.51986ZM7.04521 0.586472L7.26442 0.748283L7.18069 1.01013L7.39982 0.848315L7.61903 1.01013L7.5353 0.748283L7.75444 0.586472H7.48355L7.39982 0.324707L7.31609 0.586472H7.04521ZM8.57063 0.586472L8.78976 0.748283L8.70603 1.01013L8.92524 0.848315L9.14437 1.01013L9.06065 0.748283L9.27986 0.586472H9.00897L8.92524 0.324707L8.84151 0.586472H8.57063ZM1.70628 1.25078L1.92548 1.41259L1.84176 1.67435L2.06097 1.51254L2.2801 1.67435L2.19637 1.41259L2.41558 1.25078H2.14462L2.06097 0.988935L1.97724 1.25078H1.70628ZM3.2317 1.25078L3.4509 1.41259L3.36718 1.67435L3.58631 1.51254L3.80552 1.67435L3.72179 1.41259L3.94093 1.25078H3.67004L3.58631 0.988935L3.50258 1.25078H3.2317ZM4.75712 1.25078L4.97633 1.41259L4.8926 1.67435L5.11173 1.51254L5.33094 1.67435L5.24721 1.41259L5.46635 1.25078H5.19546L5.11173 0.988935L5.028 1.25078H4.75712ZM6.28254 1.25078L6.50167 1.41259L6.41794 1.67435L6.63715 1.51254L6.85628 1.67435L6.77256 1.41259L6.99177 1.25078H6.72088L6.63715 0.988935L6.55342 1.25078H6.28254ZM7.80788 1.25078L8.02709 1.41259L7.94336 1.67435L8.16249 1.51254L8.3817 1.67435L8.29798 1.41259L8.51711 1.25078H8.24622L8.16249 0.988935L8.07884 1.25078H7.80788ZM0.943604 1.91501L1.16281 2.07682L1.07909 2.33866L1.29822 2.17685L1.51743 2.33866L1.4337 2.07682L1.65283 1.91501H1.38195L1.29822 1.65324L1.21449 1.91501H0.943604ZM2.46902 1.91501L2.68816 2.07682L2.60443 2.33866L2.82364 2.17685L3.04285 2.33866L2.95912 2.07682L3.17825 1.91501H2.90737L2.82364 1.65324L2.73991 1.91501H2.46902ZM3.99444 1.91501L4.21358 2.07682L4.12985 2.33866L4.34906 2.17685L4.56819 2.33866L4.48446 2.07682L4.70367 1.91501H4.43279L4.34906 1.65324L4.26533 1.91501H3.99444ZM5.51986 1.91501L5.739 2.07682L5.65527 2.33866L5.87448 2.17685L6.09361 2.33866L6.00988 2.07682L6.22909 1.91501H5.95813L5.87448 1.65324L5.79075 1.91501H5.51986ZM7.04521 1.91501L7.26442 2.07682L7.18069 2.33866L7.39982 2.17685L7.61903 2.33866L7.5353 2.07682L7.75444 1.91501H7.48355L7.39982 1.65324L7.31609 1.91501H7.04521ZM8.57063 1.91501L8.78976 2.07682L8.70603 2.33866L8.92524 2.17685L9.14437 2.33866L9.06065 2.07682L9.27986 1.91501H9.00897L8.92524 1.65324L8.84151 1.91501H8.57063ZM1.72514 2.58149L1.94427 2.74331L1.86062 3.00507L2.07975 2.84326L2.29896 3.00507L2.21523 2.74323L2.43437 2.58149H2.16348L2.07975 2.31965L1.99602 2.58149H1.72514ZM3.25056 2.58149L3.46969 2.74331L3.38596 3.00507L3.60517 2.84326L3.8243 3.00507L3.74058 2.74323L3.95979 2.58149H3.6889L3.60517 2.31965L3.52144 2.58149H3.25056ZM4.77598 2.58149L4.99511 2.74331L4.91138 3.00507L5.13059 2.84326L5.34972 3.00507L5.266 2.74323L5.48521 2.58149H5.21424L5.13059 2.31965L5.04686 2.58149H4.77598ZM6.30132 2.58149L6.52053 2.74331L6.4368 3.00507L6.65594 2.84326L6.87514 3.00507L6.79142 2.74323L7.01055 2.58149H6.73966L6.65594 2.31965L6.57221 2.58149H6.30132ZM7.82674 2.58149L8.04587 2.74331L7.96215 3.00507L8.18136 2.84326L8.40049 3.00507L8.31676 2.74323L8.53597 2.58149H8.26508L8.18136 2.31965L8.09763 2.58149H7.82674ZM0.966759 3.24019L1.18597 3.40192L1.10224 3.66377L1.32137 3.50196L1.54058 3.66377L1.45686 3.40192L1.67599 3.24019H1.4051L1.32137 2.97835L1.23765 3.24019H0.966759ZM2.49218 3.24019L2.71131 3.40192L2.62758 3.66377L2.84679 3.50196L3.06593 3.66377L2.98228 3.40192L3.20141 3.24019H2.93052L2.84679 2.97835L2.76307 3.24019H2.49218ZM4.0176 3.24019L4.23673 3.40192L4.153 3.66377L4.37221 3.50196L4.59135 3.66377L4.50762 3.40192L4.72683 3.24019H4.45594L4.37221 2.97835L4.28849 3.24019H4.0176ZM5.54294 3.24019L5.76215 3.40192L5.67842 3.66377L5.89756 3.50196L6.11677 3.66377L6.03304 3.40192L6.25225 3.24019H5.98129L5.89756 2.97835L5.81391 3.24019H5.54294ZM7.06836 3.24019L7.2875 3.40192L7.20384 3.66377L7.42298 3.50196L7.64219 3.66377L7.55846 3.40192L7.77759 3.24019H7.5067L7.42298 2.97835L7.33925 3.24019H7.06836ZM8.59378 3.24019L8.81292 3.40192L8.72919 3.66377L8.9484 3.50196L9.16753 3.66377L9.0838 3.40192L9.30301 3.24019H9.03212L8.9484 2.97835L8.86467 3.24019H8.59378ZM0.981097 4.54761L1.20023 4.70942L1.1165 4.97127L1.33571 4.80946L1.55484 4.97127L1.47112 4.70942L1.69033 4.54761H1.41944L1.33571 4.28585L1.25198 4.54761H0.981097ZM2.50644 4.54761L2.72565 4.70942L2.64192 4.97127L2.86106 4.80946L3.08027 4.97127L2.99654 4.70942L3.21567 4.54761H2.94478L2.86106 4.28585L2.77733 4.54761H2.50644ZM4.03186 4.54761L4.25099 4.70942L4.16734 4.97127L4.38648 4.80946L4.60568 4.97127L4.52196 4.70942L4.74109 4.54761H4.4702L4.38648 4.28585L4.30275 4.54761H4.03186ZM5.55728 4.54761L5.77641 4.70942L5.69269 4.97127L5.9119 4.80946L6.13103 4.97127L6.04738 4.70942L6.26651 4.54761H5.99562L5.9119 4.28585L5.82817 4.54761H5.55728ZM7.08262 4.54761L7.30183 4.70942L7.21811 4.97127L7.43724 4.80946L7.65645 4.97127L7.57272 4.70942L7.79193 4.54761H7.52097L7.43724 4.28585L7.35359 4.54761H7.08262ZM8.60804 4.54761L8.82718 4.70942L8.74353 4.97127L8.96266 4.80946L9.18187 4.97127L9.09814 4.70942L9.31727 4.54761H9.04639L8.96266 4.28585L8.87893 4.54761H8.60804ZM0.962465 5.87046L1.1816 6.03227L1.09787 6.29411L1.31708 6.1323L1.53621 6.29411L1.45249 6.03227L1.6717 5.87046H1.40073L1.31708 5.6087L1.23335 5.87046H0.962465ZM2.48781 5.87046L2.70702 6.03227L2.62329 6.29411L2.84242 6.1323L3.06163 6.29411L2.97791 6.03227L3.19704 5.87046H2.92615L2.84242 5.6087L2.7587 5.87046H2.48781ZM4.01323 5.87046L4.23236 6.03227L4.14871 6.29411L4.36784 6.1323L4.58705 6.29411L4.50333 6.03227L4.72246 5.87046H4.45157L4.36784 5.6087L4.28412 5.87046H4.01323ZM5.53865 5.87046L5.75778 6.03227L5.67405 6.29411L5.89326 6.1323L6.1124 6.29411L6.02875 6.03227L6.24788 5.87046H5.97699L5.89326 5.6087L5.80954 5.87046H5.53865ZM7.06399 5.87046L7.2832 6.03227L7.19947 6.29411L7.41861 6.1323L7.63782 6.29411L7.55409 6.03227L7.7733 5.87046H7.50233L7.41861 5.6087L7.33496 5.87046H7.06399ZM8.58941 5.87046L8.80854 6.03227L8.72489 6.29411L8.94403 6.1323L9.16324 6.29411L9.07951 6.03227L9.29864 5.87046H9.02775L8.94403 5.6087L8.8603 5.87046H8.58941ZM1.72966 3.88736L1.94879 4.04917L1.86514 4.31093L2.08428 4.14912L2.30349 4.31093L2.21976 4.04917L2.43889 3.88736H2.168L2.08428 3.62552L2.00055 3.88736H1.72966ZM3.25508 3.88736L3.47421 4.04917L3.39049 4.31093L3.6097 4.14912L3.82883 4.31093L3.74518 4.04917L3.96431 3.88736H3.69342L3.6097 3.62552L3.52597 3.88736H3.25508ZM4.7805 3.88736L4.99963 4.04917L4.91591 4.31093L5.13512 4.14912L5.35425 4.31093L5.27052 4.04917L5.48973 3.88736H5.21884L5.13512 3.62552L5.05139 3.88736H4.7805ZM6.30584 3.88736L6.52505 4.04917L6.44133 4.31093L6.66046 4.14912L6.87967 4.31093L6.79594 4.04917L7.01507 3.88736H6.74419L6.66046 3.62552L6.57673 3.88736H6.30584ZM7.83126 3.88736L8.0504 4.04917L7.96667 4.31093L8.18588 4.14912L8.40501 4.31093L8.32136 4.04917L8.54049 3.88736H8.26961L8.18588 3.62552L8.10215 3.88736H7.83126ZM1.72514 5.2081L1.94435 5.36991L1.86062 5.63176L2.07975 5.46994L2.29896 5.63176L2.21523 5.36991L2.43437 5.2081H2.16348L2.07975 4.94634L1.99602 5.2081H1.72514ZM3.25056 5.2081L3.46969 5.36991L3.38596 5.63176L3.60517 5.46994L3.82438 5.63176L3.74065 5.36991L3.95979 5.2081H3.6889L3.60517 4.94634L3.52144 5.2081H3.25056ZM4.77598 5.2081L4.99511 5.36991L4.91138 5.63176L5.13059 5.46994L5.34972 5.63176L5.266 5.36991L5.48521 5.2081H5.21432L5.13059 4.94634L5.04686 5.2081H4.77598ZM6.30132 5.2081L6.52053 5.36991L6.4368 5.63176L6.65594 5.46994L6.87514 5.63176L6.79142 5.36991L7.01055 5.2081H6.73966L6.65594 4.94634L6.57221 5.2081H6.30132ZM7.82674 5.2081L8.04587 5.36991L7.96215 5.63176L8.18136 5.46994L8.40049 5.63176L8.31684 5.36991L8.53597 5.2081H8.26508L8.18136 4.94634L8.09763 5.2081H7.82674Z" fill="white"/>
</g>
<defs>
<clipPath id="clip0_104_3871">
<rect x="0.51001" width="20" height="14" rx="2" fill="white"/>
</clipPath>
</defs>
</svg>
